# xmcd CD database file
#
# Track frame offsets:
#	150
#	11915
#	22101
#	39480
#	49249
#	61855
#	77216
#	89990
#	101075
#	112388
#	128816
#	141073
#	157001
#	167790
#
# Disc length: 2421 seconds
#
# Revision: 0
# Processed by: cddbd v1.5.2PL0 Copyright (c) Steve Scherf et al.
# Submitted via: CDex 1.51
#
DISCID=cd09730e
DTITLE=The Chatham Singers - Juju Claudius
DYEAR=2009
DGENRE=Blues
TTITLE0=All who cheated and lied
TTITLE1=Juju claudius
TTITLE2=An image of you
TTITLE3=Upside mine
TTITLE4=The son of art
TTITLE5=The true story of Elizabeth sargent
TTITLE6=Queen bee
TTITLE7=Evil thing
TTITLE8=Angel of death
TTITLE9=Demolition man
TTITLE10=The right mistake
TTITLE11=The good times
TTITLE12=Bring me water
TTITLE13=Baby what´s wrong
EXTD=YEAR: 2009
EXTT0=
EXTT1=
EXTT2=
EXTT3=
EXTT4=
EXTT5=
EXTT6=
EXTT7=
EXTT8=
EXTT9=
EXTT10=
EXTT11=
EXTT12=
EXTT13=
PLAYORDER=
